<?xml version="1.0" encoding="utf-8"?>
<!-- Generator: Adobe Illustrator 22.0.1, SVG Export Plug-In . SVG Version: 6.00 Build 0)  -->
<svg version="1.1" id="Layer_1" xmlns="http://www.w3.org/2000/svg" xmlns:xlink="http://www.w3.org/1999/xlink" x="0px" y="0px"
	 viewBox="0 0 320 80" style="enable-background:new 0 0 320 80;" xml:space="preserve">
<style type="text/css">
	.st0{display:none;}
	.st1{display:inline;fill:#231F20;}
	.st2{display:inline;}
	.st3{fill:#231F20;}
	.st4{fill:none;stroke:#231F20;stroke-width:14;stroke-miterlimit:10;}
	.st5{display:inline;fill:none;stroke:#231F20;stroke-miterlimit:10;}
	.st6{fill:url(#SVGID_1_);}
	.st7{fill:url(#SVGID_2_);}
	.st8{fill:url(#SVGID_3_);}
	.st9{fill:#FFFFFF;}
</style>
<g id="Layer_1_1_" class="st0">
	<path class="st1" d="M123.6,362.6c-1.8-4.3-4.9-7.5-9-9.8c-2.1-1.2-4.4-1.1-6.6-1.5c-40.1,0-80.1,0-120.2,0
		c-0.1,0.1-0.2,0.1-0.4,0.1c-5.5,0-9.3,2.9-12.6,6.8c-2.2,2.7-3.1,5.8-3.4,9.2c0,40.2,0,80.5,0,120.7c0.4,1.6,0.2,3.3,0.9,4.8
		c1.3,3.2,3.4,5.7,6,7.9c2.7,2.3,5.9,3.2,9.3,3.5c40.1,0,80.3,0,120.4,0c0.1-0.1,0.2-0.1,0.4-0.1c5.5,0,9.3-2.9,12.6-6.8
		c2.2-2.7,3.1-5.8,3.4-9.2c0-40.1,0-80.3,0-120.4C124.1,366,124.4,364.2,123.6,362.6z M104,452.8c-2.4,5.4-5.8,10.1-10.5,13.8
		c-4.2,3.4-8.9,4.1-13.9,2.2c-4.8-1.8-8.1-5.2-8.9-10.5c-0.2-1.5-0.2-3.1-0.2-4.9c-15.5,14.7-36.8,11.7-49-1.5
		c-11.9-13-12.5-31.4-1.2-44.8c6.4-7.6,14.5-12.2,24.6-12.7c10-0.5,18.4,3.4,25.7,10.2c0.1-0.3,0.2-0.5,0.2-0.7
		c0.7-3.3,2.5-4.6,6.1-4.4c2.7,0.2,4.7,2.3,4.8,5.2c0,0.5,0,0.9,0,1.4c0,15.4,0,30.9,0,46.3c0,2,0.7,3.2,2.2,3.7
		c1.7,0.5,2.8-0.3,3.7-1.6c3.5-4.5,5.3-9.8,6.5-15.2c2.1-9.2,2-18.3-1.2-27.2c-3.6-10.2-10.7-17.4-20-22.4c-15-8-30.6-8.7-46.1-1.8
		c-13.1,5.8-20.7,16.6-24,30.3C-0.9,433.9,2.6,448,14,459.6c8,8.1,18,12.2,29.2,13.4c6.9,0.8,13.5,0,20-2.5c3.1-1.2,6-0.3,7.5,2.1
		c1.6,2.5,1.3,5.7-0.8,8.1c-1.1,1.2-2.5,2-4,2.6c-5.7,2.1-11.6,2.8-17.6,2.7c-11.7-0.2-22.8-2.8-32.9-9
		c-15.2-9.2-24.1-22.8-26.5-40.3C-13,423-10.7,410-3.3,398.2c8.4-13.3,20.4-21.9,35.5-25.7c23.2-5.9,43.8-0.8,61.1,16
		c8.2,7.9,12.5,18,14.5,29.1C110,429.8,109,441.5,104,452.8z"/>
	<path class="st1" d="M24.6,428.6c-0.1-2.8,0.4-6,1.6-9c3.3-8.2,9.3-12.7,18.2-13.5c11.7-0.9,21.4,6.1,23.8,17.5
		c2.6,12.6-4.9,24.7-17,27.2C36.4,453.8,24.8,444.3,24.6,428.6z"/>
	<path class="st1" d="M441.6,362.9c7.7,0.3,11.9,1.6,14.7,2.7c3.7,1.4,6.3,3.2,9.1,5.9c2.8,2.8,4.5,5.4,5.9,9.1
		c1.1,2.8,2.4,7,2.7,14.7c1,21.2,1,42.8,0,64c-0.4,7.7-1.6,11.9-2.7,14.7c-1.4,3.7-3.2,6.3-5.9,9.1c-2.8,2.8-5.4,4.5-9.1,5.9
		c-2.8,1.1-7,2.4-14.7,2.7c-21.2,1-42.8,1-64,0c-7.7-0.4-11.9-1.6-14.7-2.7c-3.7-1.4-6.3-3.2-9.1-5.9c-2.8-2.8-4.5-5.4-5.9-9.1
		c-1.1-2.8-2.4-7-2.7-14.7c-1-21.2-1-42.8,0-64c0.4-7.7,1.6-11.9,2.7-14.7c1.4-3.7,3.2-6.3,5.9-9.1c2.8-2.8,5.4-4.5,9.1-5.9
		c2.8-1.1,7-2.4,14.7-2.7C398.7,361.9,420.4,361.9,441.6,362.9L441.6,362.9z M376.9,348.6c-8.4,0.4-14.2,1.7-19.2,3.7
		c-5.2,2-9.6,4.7-14,9.1s-7.1,8.8-9.1,14c-2,5-3.3,10.8-3.7,19.2c-1,21.7-1,43.7,0,65.3c0.4,8.4,1.7,14.2,3.7,19.2
		c2,5.2,4.7,9.6,9.1,14s8.8,7.1,14,9.1c5,2,10.8,3.3,19.2,3.7c21.7,1,43.7,1,65.3,0c8.4-0.4,14.2-1.7,19.2-3.7c5.2-2,9.6-4.7,14-9.1
		s7.1-8.8,9.1-14c2-5,3.3-10.8,3.7-19.2c1-21.7,1-43.7,0-65.3c-0.4-8.4-1.7-14.2-3.7-19.2c-2-5.2-4.7-9.6-9.1-14s-8.8-7.1-14-9.1
		c-5-2-10.8-3.3-19.2-3.7C420.6,347.6,398.6,347.6,376.9,348.6L376.9,348.6z M409.6,386.7c-22.5,0-40.7,18.2-40.7,40.7
		s18.2,40.7,40.7,40.7s40.7-18.2,40.7-40.7S432.1,386.7,409.6,386.7L409.6,386.7z M409.6,453.8c-14.6,0-26.4-11.8-26.4-26.4
		S395,401,409.6,401s26.4,11.8,26.4,26.4C435.9,441.9,424.1,453.8,409.6,453.8L409.6,453.8z M461.4,385.1c0,5.3-4.3,9.5-9.5,9.5
		s-9.5-4.3-9.5-9.5c0-5.3,4.3-9.5,9.5-9.5S461.4,379.8,461.4,385.1L461.4,385.1z"/>
	<path class="st1" d="M304.6,146.7c0-12.6-10.3-23-23-23H175.5c-12.6,0-23,10.3-23,23v106.1c0,12.6,10.3,23,23,23h53.1v-57.5H210
		v-25.4h18.6V183c0-17,12.8-32.4,28.5-32.4h20.5V176h-20.5c-2.2,0-4.9,2.7-4.9,6.8v10.1h25.4v25.4h-25.4v57.5h29.4
		c12.6,0,23-10.3,23-23V146.7z"/>
	<g class="st2">
		<path class="st3" d="M-129.8,155.9c-1.7,0.3-13.7,3-13.7,23.9c0,9.6,2.4,15.3,5.2,18.8c2.7,3.3,6.8,5.2,11,5.2h7.5v-47.9h-9.7
			C-129.6,155.9-129.7,155.9-129.8,155.9L-129.8,155.9z"/>
		<path class="st3" d="M-210.2,142.9v113.8c0,10.7,8.7,19.4,19.4,19.4H-77c10.7,0,19.4-8.7,19.4-19.4V142.9
			c0-10.7-8.7-19.4-19.4-19.4h-113.8C-201.5,123.5-210.2,132.2-210.2,142.9z M-108.4,252.6h-11.2v-39.4h-7.9l-17.8,39.4h-14.1
			l22.4-40.5c0,0-18.9-8.7-18.9-30.3s15-34.9,27.7-34.9h19.8L-108.4,252.6L-108.4,252.6z"/>
	</g>
	<path class="st1" d="M484.9,135.1c-1.8-4.3-4.8-7.5-8.9-9.7c-2.1-1.2-4.3-1.1-6.5-1.5c-39.8,0-79.5,0-119.3,0
		c-0.1,0.1-0.2,0.1-0.4,0.1c-5.4,0-9.3,2.8-12.5,6.8c-2.2,2.6-3.1,5.8-3.4,9.1c0,40,0,79.9,0,119.9c0.4,1.6,0.2,3.2,0.9,4.8
		c1.3,3.1,3.4,5.6,5.9,7.8c2.7,2.2,5.8,3.2,9.2,3.5c39.9,0,79.7,0,119.6,0c0.1-0.1,0.2-0.1,0.4-0.1c5.4,0,9.3-2.8,12.5-6.8
		c2.2-2.6,3.1-5.8,3.4-9.1c0-39.9,0-79.7,0-119.6C485.4,138.5,485.6,136.7,484.9,135.1z M467.2,237.4c-2.9,0.4-17.3,0-18,0
		c-3.9,0-7.2-1.4-9.9-4c-3-2.9-5.8-6.1-8.7-9.1c-0.9-0.9-1.8-1.8-2.8-2.6c-2.4-1.8-4.7-1.4-5.8,1.4c-0.9,2.4-1.8,8.7-1.8,9.2
		c-0.2,2.8-2,4.6-5.1,4.8c-9.1,0.5-17.9-0.5-26.1-4.9c-7-3.7-12.5-9-17.3-15.1c-7.6-9.7-13.7-20.5-19.2-31.5c-0.3-0.6-5.9-12.4-6-13
		c-0.5-1.9,0-3.7,1.6-4.3c1-0.4,19.4,0,19.7,0c2.9,0.2,4.9,1.4,6.2,4.4c3.5,8.7,8,16.9,13.8,24.2c0.8,1,1.8,1.8,2.8,2.6
		c1.5,1,2.9,0.7,3.5-1.1s1.2-5.5,1.3-7.4c0.1-5,0-8.2-0.3-13.2c-0.2-3.2-1.3-6-6-6.8c-1.4-0.3-1.6-1.5-0.7-2.6
		c1.9-2.5,4.6-2.9,7.5-3c4.7-0.3,9.5,0,14.2,0c1.9,0,3.9,0.2,5.8,0.6c2.5,0.5,3.8,2.3,4.2,4.7c0.2,1.2,0.3,2.5,0.3,3.8
		c-0.1,5.4-0.4,10.8-0.4,16.3c0,2.1,0.1,4.3,0.6,6.4c0.6,2.9,2.6,3.6,4.6,1.5c2.6-2.7,4.8-5.6,6.9-8.7c3.8-5.5,6.7-11.6,9.2-17.8
		c1.3-3.2,2.3-3.9,5.7-3.9c6.5,0,13,0,19.5,0c1.2,0,2.4,0.1,3.4,0.5c1.8,0.6,2.5,2,2.1,3.8c-1,4.3-3.3,7.9-5.8,11.4
		c-4,5.6-8.2,11.1-12.2,16.7c-0.5,0.7-1,1.5-1.4,2.2c-1.5,2.8-1.4,4.3,0.8,6.6c3.5,3.6,7.3,7.1,10.8,10.8c2.5,2.7,4.8,5.7,6.8,8.8
		C473.4,233.1,471.9,236.8,467.2,237.4z"/>
	<g class="st2">
		<circle class="st3" cx="590.7" cy="172.8" r="13.6"/>
		<path class="st3" d="M666.2,135.1c-1.8-4.3-4.8-7.5-8.9-9.7c-2.1-1.2-4.3-1.1-6.5-1.5c-39.8,0-79.5,0-119.3,0
			c-0.1,0.1-0.2,0.1-0.4,0.1c-5.4,0-9.3,2.8-12.5,6.8c-2.2,2.6-3.1,5.8-3.4,9.1c0,40,0,79.9,0,119.9c0.4,1.6,0.2,3.2,0.9,4.8
			c1.3,3.1,3.4,5.6,5.9,7.8c2.7,2.2,5.8,3.2,9.2,3.5c39.9,0,79.7,0,119.6,0c0.1-0.1,0.2-0.1,0.4-0.1c5.4,0,9.3-2.8,12.5-6.8
			c2.2-2.6,3.1-5.8,3.4-9.1c0-39.9,0-79.7,0-119.6C666.7,138.5,666.8,136.7,666.2,135.1z M590.7,145.1c15.3,0,27.7,12.4,27.7,27.7
			s-12.4,27.7-27.7,27.7S563,188.1,563,172.8C563.1,157.5,575.3,145.1,590.7,145.1z M615.2,216.4c-5.9,3.8-13.9,5.2-19.2,5.7
			l4.4,4.4l16.3,16.3c2.5,2.5,2.5,6.5,0,9l-0.7,0.7c-2.5,2.5-6.5,2.5-9,0c-4.1-4.1-10.1-10.1-16.3-16.3l-16.3,16.3
			c-1.2,1.2-2.9,1.9-4.5,1.9l0,0c-1.6,0-3.2-0.6-4.5-1.9l-0.7-0.7c-2.5-2.5-2.5-6.5,0-9c4.1-4.1,10.1-10.1,16.3-16.3l4.4-4.4
			c-5.3-0.5-13.4-2-19.3-5.8c-6.9-4.5-10-7.1-7.3-12.6c1.6-3.1,5.9-5.7,11.6-1.2c7.8,6.1,20.3,6.1,20.3,6.1s12.5,0,20.3-6.1
			c5.8-4.5,10.1-1.9,11.6,1.2C625.2,209.3,622.2,211.9,615.2,216.4z"/>
	</g>
	<path class="st1" d="M122.4,135.1c-1.8-4.3-4.8-7.5-8.9-9.7c-2.1-1.2-4.3-1.1-6.5-1.5c-39.8,0-79.5,0-119.3,0
		c-0.1,0.1-0.2,0.1-0.4,0.1c-5.4,0-9.3,2.8-12.5,6.8c-2.2,2.6-3.1,5.8-3.4,9.1c0,40,0,79.9,0,119.9c0.4,1.6,0.2,3.2,0.9,4.8
		c1.3,3.1,3.4,5.6,5.9,7.8c2.7,2.2,5.8,3.2,9.2,3.5c39.9,0,79.7,0,119.6,0c0.1-0.1,0.2-0.1,0.4-0.1c5.4,0,9.3-2.8,12.5-6.8
		c2.2-2.6,3.1-5.8,3.4-9.1c0-39.9,0-79.7,0-119.6C122.9,138.5,123.1,136.7,122.4,135.1z M52.1,224.1c-7.7,10-22,12.9-33.7,9
		C6.1,229-2.9,216.6-2.7,203.6c-0.6-16.1,13.5-31,29.6-31.2c8.2-0.7,16.2,2.5,22.4,7.7c-2.6,2.8-5.2,5.6-7.9,8.2
		c-5.5-3.3-12.1-5.9-18.5-3.6c-10.3,2.9-16.6,15.1-12.8,25.2c3.2,10.6,16,16.3,26,11.9c5.2-1.9,8.6-6.7,10.1-11.8
		c-6-0.1-11.9,0-17.9-0.2c0-3.5,0-7.1,0-10.6c10,0,19.9,0,29.9,0C59,207.8,57.8,217.1,52.1,224.1z M95.8,208c-3,0-5.9,0-8.9,0
		c0,3,0,6-0.1,8.9c-3,0-5.9,0-8.9,0c0-3,0-5.9-0.1-8.9c-3,0-6,0-8.9-0.1V199c3,0,5.9,0,8.9-0.1c0-3,0-5.9,0.1-8.9h8.9
		c0,3,0,6,0.1,8.9c3,0,6,0,8.9,0.1V208z"/>
	<path class="st1" d="M303.9,363.4c-1.8-4.3-4.8-7.5-8.9-9.7c-2.1-1.2-4.3-1.1-6.5-1.5c-39.8,0-79.5,0-119.3,0
		c-0.1,0.1-0.2,0.1-0.4,0.1c-5.4,0-9.3,2.8-12.5,6.8c-2.2,2.6-3.1,5.8-3.4,9.1c0,40,0,79.9,0,119.9c0.4,1.6,0.2,3.2,0.9,4.8
		c1.3,3.1,3.4,5.6,5.9,7.8c2.7,2.2,5.8,3.2,9.2,3.5c39.9,0,79.7,0,119.6,0c0.1-0.1,0.2-0.1,0.4-0.1c5.4,0,9.3-2.8,12.5-6.8
		c2.2-2.6,3.1-5.8,3.4-9.1c0-39.9,0-79.7,0-119.6C304.4,366.8,304.6,365,303.9,363.4z M289.1,394.1c-2.8,3.5-6,6.5-9.6,9.2
		c0,1.1,0.1,2.2,0.1,3.3c0,33.8-25.3,72.7-71.5,72.7c-12,0-23.4-3-33.3-8.4c-1.3-0.7-0.8-2.7,0.7-2.7c0,0,0,0,0.1,0
		c10.4,0,20-3.2,28.1-8.6c1.1-0.7,0.8-2.4-0.5-2.6c-8.5-1.4-15.6-7.2-18.9-15.1c-0.4-1,0.4-2.1,1.5-2c0.8,0.1,1.6,0.1,2.4,0.1
		c0.1,0,0.3,0,0.4,0c1.5,0,2-2.1,0.6-2.8c-8.6-4.1-14.5-12.9-14.5-23.2c0-0.1,0-0.2,0-0.3c1.9,1.1,4,1.9,6.2,2.5
		c1.4,0.4,2.5-1.4,1.4-2.4c-4.6-4.6-7.4-11.1-7.4-18.1c0-3.9,0.8-7.6,2.4-10.9c0.4-1,1.7-1.1,2.4-0.3c12,14.1,29.2,23.4,48.5,24.9
		c0.9,0.1,1.7-0.8,1.5-1.7c-0.2-1.3-0.3-2.7-0.3-4c0-14.1,11.3-25.6,25.1-25.6c6.9,0,13.2,2.9,17.8,7.5c0.4,0.4,0.9,0.5,1.4,0.4
		c4.1-0.9,8-2.3,11.6-4.1c1.3-0.6,2.6,0.7,1.9,2c-1.3,2.5-2.9,4.8-4.9,6.7c-1.1,1-0.1,2.8,1.4,2.4c1.3-0.3,2.6-0.7,3.9-1.1
		C288.9,391.4,289.9,393,289.1,394.1z"/>
</g>
<g id="Layer_10" class="st0">
	<path class="st1" d="M-65.2,333.9c7.7,0.3,11.9,1.6,14.7,2.7c3.7,1.4,6.3,3.2,9.1,5.9c2.8,2.8,4.5,5.4,5.9,9.1
		c1.1,2.8,2.4,7,2.7,14.7c1,21.2,1,42.8,0,64c-0.4,7.7-1.6,11.9-2.7,14.7c-1.4,3.7-3.2,6.3-5.9,9.1c-2.8,2.8-5.4,4.5-9.1,5.9
		c-2.8,1.1-7,2.4-14.7,2.7c-21.2,1-42.8,1-64,0c-7.7-0.4-11.9-1.6-14.7-2.7c-3.7-1.4-6.3-3.2-9.1-5.9c-2.8-2.8-4.5-5.4-5.9-9.1
		c-1.1-2.8-2.4-7-2.7-14.7c-1-21.2-1-42.8,0-64c0.4-7.7,1.6-11.9,2.7-14.7c1.4-3.7,3.2-6.3,5.9-9.1c2.8-2.8,5.4-4.5,9.1-5.9
		c2.8-1.1,7-2.4,14.7-2.7C-108,332.9-86.4,332.9-65.2,333.9L-65.2,333.9z M-129.9,319.6c-8.4,0.4-14.2,1.7-19.2,3.7
		c-5.2,2-9.6,4.7-14,9.1s-7.1,8.8-9.1,14c-2,5-3.3,10.8-3.7,19.2c-1,21.7-1,43.7,0,65.3c0.4,8.4,1.7,14.2,3.7,19.2
		c2,5.2,4.7,9.6,9.1,14s8.8,7.1,14,9.1c5,2,10.8,3.3,19.2,3.7c21.7,1,43.7,1,65.3,0c8.4-0.4,14.2-1.7,19.2-3.7c5.2-2,9.6-4.7,14-9.1
		s7.1-8.8,9.1-14c2-5,3.3-10.8,3.7-19.2c1-21.7,1-43.7,0-65.3c-0.4-8.4-1.7-14.2-3.7-19.2c-2-5.2-4.7-9.6-9.1-14s-8.8-7.1-14-9.1
		c-5-2-10.8-3.3-19.2-3.7C-86.2,318.6-108.2,318.6-129.9,319.6L-129.9,319.6z M-97.2,357.7c-22.5,0-40.7,18.2-40.7,40.7
		s18.2,40.7,40.7,40.7s40.7-18.2,40.7-40.7S-74.7,357.7-97.2,357.7L-97.2,357.7z M-97.2,424.7c-14.6,0-26.4-11.8-26.4-26.4
		s11.8-26.4,26.4-26.4s26.4,11.8,26.4,26.4S-82.6,424.7-97.2,424.7L-97.2,424.7z M-45.4,356.1c0,5.3-4.3,9.5-9.5,9.5
		s-9.5-4.3-9.5-9.5c0-5.3,4.3-9.5,9.5-9.5C-49.7,346.5-45.4,350.8-45.4,356.1L-45.4,356.1z"/>
	<path class="st1" d="M551.7,475l25.9-57.2H589V475h16.2V321.9h-28.8c-18.3,0-40.1,19.3-40.1,50.5c0,31.3,27.4,43.9,27.4,43.9
		L531.2,475H551.7z M561.7,396.8c-4-5-7.5-13.4-7.5-27.3c0-30.4,17.5-34.3,19.9-34.7c0.2,0,0.3,0,0.5,0h14v69.5h-10.8
		C571.6,404.3,565.6,401.7,561.7,396.8z"/>
	<g class="st2">
		<path class="st3" d="M21.1,141.2c-0.1,7.4-0.1,14.8-0.2,22.1c-7.4,0.1-14.8,0.1-22.1,0.1v22c7.4,0,14.8,0.1,22.1,0.1
			c0.1,7.4,0.1,14.7,0.1,22.1c7.3,0,14.7,0,22,0c0-7.4,0.1-14.7,0.1-22.1c7.4-0.1,14.7-0.1,22.1-0.1v-22c-7.3,0-14.7-0.1-22.1-0.1
			c-0.1-7.4-0.1-14.7-0.1-22.1H21.1z"/>
		<path class="st3" d="M-114.7,127.5c15.9-5.6,32.2,0.7,45.8,8.9c6.9-6.4,13.3-13.3,19.6-20.2c-15.4-12.9-35.2-20.8-55.6-19.1
			c-40,0.5-74.9,37.4-73.4,77.3c-0.7,32.3,21.6,63.1,52.2,73.2c28.8,9.7,64.3,2.5,83.5-22.2c14-17.3,17.2-40.4,15.7-61.9
			c-24.7-0.2-49.4-0.1-74-0.1c0,8.8,0,17.6,0,26.3c14.8,0.4,29.6,0.2,44.4,0.5c-3.7,12.8-12.2,24.7-25.1,29.3
			c-24.9,11-56.7-3.4-64.5-29.5C-155.7,165-140.2,134.8-114.7,127.5z"/>
	</g>
	<path class="st1" d="M336.2,138.4v12.2h-22.9v31.2h22.9v70.3h29.1v-70.3h31.2v-31.2h-31.2v-12.4c0-5,3.2-8.4,6-8.4h25.2V98.6h-25.2
		C351.9,98.6,336.2,117.5,336.2,138.4z"/>
	<path class="st1" d="M395.9,366.6c-0.2-3.9-2.9-6.7-6.4-7c-4.7-0.3-7.1,1.4-8.1,5.8c-0.1,0.2-0.2,0.5-0.3,0.9
		c-9.7-9-20.8-14.2-34-13.5c-13.3,0.7-24.1,6.8-32.6,16.9c-15,17.8-14.2,42.2,1.5,59.4c16.1,17.5,44.4,21.5,64.9,2
		c0.1,2.3,0,4.4,0.3,6.4c1.1,7,5.4,11.5,11.8,13.9c6.6,2.5,12.9,1.5,18.4-2.9c6.2-4.9,10.7-11.2,13.9-18.3c6.7-15,8-30.6,5.1-46.6
		c-2.6-14.7-8.4-28-19.2-38.5c-23-22.3-50.4-29-81.1-21.2c-20,5.1-36,16.4-47.1,34.1c-9.8,15.6-12.9,32.8-10.4,51
		c3.3,23.3,15,41.3,35.2,53.5c13.4,8.1,28.1,11.6,43.6,11.9c8,0.1,15.8-0.7,23.4-3.5c2-0.8,3.9-1.8,5.3-3.4
		c2.8-3.1,3.2-7.4,1.1-10.7c-2-3.1-5.8-4.3-9.9-2.8c-8.6,3.3-17.4,4.3-26.5,3.3c-14.8-1.6-28.1-7-38.6-17.8
		c-15.1-15.4-19.8-34.1-14.9-54.9c4.3-18.2,14.4-32.5,31.8-40.2c20.6-9.2,41.3-8.3,61.2,2.3c12.4,6.6,21.8,16.1,26.6,29.7
		c4.2,11.8,4.3,23.9,1.5,36.1c-1.6,7.3-4.1,14.2-8.7,20.2c-1.3,1.6-2.8,2.8-5,2.1c-2-0.6-2.9-2.2-2.9-4.9c0-20.5,0-40.9,0-61.4
		C395.9,367.8,395.9,367.2,395.9,366.6z M355.4,427.5c-19.8,4.1-35.3-8.5-35.3-29.4c-0.1-3.7,0.6-8,2.2-12
		c4.3-10.9,12.3-16.9,24.1-17.9c15.5-1.3,28.4,8.1,31.5,23.2C381.4,408.1,371.4,424.2,355.4,427.5z"/>
	<g class="st2">
		<path class="st3" d="M80.1,404.9c-3.8,7.7,0.5,11.4,10.3,17.7c8.3,5.4,19.8,7.4,27.2,8.1l-6.2,6.2c-8.7,8.7-17.1,17.1-22.9,22.9
			c-3.5,3.5-3.5,9.1,0,12.6l1.1,1.1c1.7,1.7,4,2.6,6.3,2.6l0,0c2.3,0,4.6-0.9,6.3-2.6l22.9-22.9c8.7,8.7,17.1,17.1,22.9,22.9
			c3.5,3.5,9.1,3.5,12.6,0l1.1-1.1c3.5-3.5,3.5-9.1,0-12.6l-22.9-22.9l-6.2-6.2c7.4-0.8,18.7-2.8,27-8.1c9.8-6.3,14.1-10,10.3-17.7
			c-2.2-4.4-8.3-8.1-16.4-1.7c-10.9,8.6-28.5,8.6-28.5,8.6s-17.6,0-28.5-8.6C88.4,396.8,82.4,400.5,80.1,404.9z"/>
		<path class="st3" d="M125,400.1c21.5,0,38.9-17.4,38.9-38.9s-17.4-38.9-38.9-38.9s-38.9,17.4-38.9,38.9S103.5,400.1,125,400.1z
			 M125,342.1c10.6,0,19.1,8.6,19.1,19.1c0,10.6-8.6,19.1-19.1,19.1c-10.6,0-19.1-8.6-19.1-19.1C105.9,350.6,114.4,342.1,125,342.1z
			"/>
	</g>
	<g class="st2">
		<path class="st3" d="M513.3,169.7c-0.5,1.4-1.6,1.6-2.8,0.8c-0.8-0.6-1.6-1.2-2.2-2c-4.6-5.8-8.1-12.3-10.9-19.1
			c-1-2.4-2.6-3.4-4.9-3.5c-0.2,0-14.8-0.3-15.5,0c-1.3,0.5-1.6,1.9-1.2,3.4c0.1,0.4,4.5,9.8,4.7,10.3c4.3,8.7,9.1,17.2,15.1,24.9
			c3.8,4.8,8.2,9,13.7,11.9c6.5,3.5,13.4,4.3,20.6,3.9c2.5-0.1,3.9-1.5,4.1-3.8c0-0.4,0.7-5.4,1.4-7.3c0.9-2.2,2.7-2.5,4.6-1.1
			c0.8,0.6,1.5,1.3,2.2,2c2.3,2.4,4.5,4.9,6.8,7.2c2.1,2.1,4.8,3.1,7.9,3.1c0.6,0,11.9,0.3,14.2,0c3.7-0.5,4.9-3.5,2.9-6.6
			c-1.6-2.5-3.4-4.8-5.3-6.9c-2.7-3-5.7-5.7-8.5-8.5c-1.8-1.8-1.8-3-0.6-5.2c0.3-0.6,0.7-1.2,1.1-1.8c3.2-4.4,6.5-8.7,9.7-13.1
			c2-2.8,3.8-5.6,4.5-9c0.3-1.4-0.2-2.6-1.6-3c-0.9-0.3-1.8-0.4-2.7-0.4c-5.1,0-10.3,0-15.4,0c-2.7,0-3.5,0.6-4.5,3.1
			c-1.9,4.9-4.2,9.7-7.2,14c-1.7,2.4-3.4,4.7-5.5,6.8c-1.6,1.6-3.1,1.1-3.6-1.2c-0.4-1.6-0.5-3.4-0.5-5c0-4.3,0.3-8.6,0.4-12.8
			c0-1-0.1-2-0.2-3c-0.3-1.9-1.4-3.3-3.3-3.7c-1.5-0.3-3-0.5-4.6-0.5c-3.7,0-7.5-0.2-11.2,0c-2.3,0.1-4.4,0.4-6,2.4
			c-0.7,0.9-0.6,1.9,0.5,2.1c3.7,0.7,4.6,2.9,4.7,5.4c0.2,3.9,0.3,6.5,0.2,10.4C514.3,165.4,513.9,168.3,513.3,169.7z"/>
		<path class="st4" d="M487.9,100h76.9c18.5,0,33.6,15.1,33.6,33.6v76.9c0,18.5-15.1,33.6-33.6,33.6h-76.9
			c-18.5,0-33.6-15.1-33.6-33.6v-76.9C454.2,115.1,469.4,100,487.9,100z"/>
	</g>
	<g class="st2">
		<path class="st3" d="M227.9,154.3c0.6-0.7-0.2-1.8-1-1.5s-1.7,0.5-2.6,0.7c-0.9,0.2-1.6-0.9-0.9-1.6c1.3-1.3,2.4-2.7,3.2-4.4
			c0.4-0.8-0.4-1.7-1.3-1.3c-2.4,1.2-4.9,2.1-7.6,2.7c-0.3,0.1-0.7,0-0.9-0.3c-3-3-7.1-4.9-11.6-4.9c-9,0-16.3,7.4-16.3,16.6
			c0,0.9,0.1,1.8,0.2,2.6c0.1,0.6-0.4,1.1-1,1.1c-12.6-1-23.8-7.1-31.6-16.2c-0.4-0.5-1.3-0.4-1.6,0.2c-1,2.1-1.5,4.5-1.5,7.1
			c0,4.6,1.8,8.8,4.8,11.8c0.7,0.7,0,1.8-0.9,1.6c-1.4-0.4-2.8-0.9-4-1.6c0,0.1,0,0.1,0,0.2c0,6.7,3.9,12.4,9.4,15.1
			c0.9,0.4,0.6,1.8-0.4,1.8c-0.1,0-0.2,0-0.3,0c-0.5,0-1,0-1.6-0.1c-0.7-0.1-1.2,0.7-1,1.3c2.2,5.1,6.8,8.9,12.3,9.8
			c0.8,0.1,1.1,1.2,0.4,1.7c-5.2,3.5-11.5,5.6-18.3,5.6l0,0c-1,0-1.3,1.3-0.5,1.8c6.5,3.5,13.8,5.5,21.7,5.5
			c30.1,0,46.5-25.3,46.5-47.3c0-0.7,0-1.4,0-2.2C224,158.6,226.1,156.6,227.9,154.3z"/>
		<circle class="st4" cx="187.1" cy="175.2" r="73.5"/>
	</g>
</g>
<g id="Layer_11" class="st0">
	<path class="st5" d="M-89.2,859.9h-111.7c-11.5,0-20.8-9.3-20.8-20.8V727.5c0-11.5,9.3-20.8,20.8-20.8h111.7
		c11.5,0,20.8,9.3,20.8,20.8v111.7C-68.4,850.6-77.7,859.9-89.2,859.9z"/>
</g>
<g id="Layer_2_1_" class="st0">
	<g class="st2">
		<path class="st3" d="M238.1,137.9c-10.9,1.8-89.7,19.5-89.7,156.6c0,62.6,15.7,100.3,33.7,122.9c17.4,21.8,44.3,33.8,72.2,33.8
			h48.8V137.7h-62.7C239.6,137.7,238.9,137.7,238.1,137.9L238.1,137.9z"/>
		<path class="st3" d="M-287.4,52.7v744c0,70.1,56.8,126.9,126.9,126.9h744c70.1,0,126.9-56.8,126.9-126.9v-744
			c0-70.1-56.8-126.9-126.9-126.9h-744C-230.6-74.2-287.4-17.4-287.4,52.7z M378.4,770.1h-73.3V512.2h-51.6L136.9,770.1H44.6
			l146.6-264.6c0,0-123.5-57-123.5-198.1s98.4-228,181-228h129.8L378.4,770.1L378.4,770.1z"/>
	</g>
</g>
<g id="Layer_3" class="st0">
	<path class="st1" d="M703.6-0.1c-11.9-28.1-31.8-48.9-58.4-63.8c-13.6-7.6-28.5-7.3-43-10.1c-261,0-522.1,0-783.1,0
		c-0.8,0.6-1.6,1-2.6,1c-35.6-0.1-60.9,18.7-82.5,44.5c-14.5,17.4-20.1,37.8-22.1,59.7c0,262.3,0,524.7,0,787
		c2.7,10.3,1.6,21.3,5.6,31.2c8.4,20.6,22.1,37.1,39,51.2c17.6,14.7,38.2,20.9,60.5,22.7c261.7,0,523.4,0,785,0c0.8-0.6,1.6-1,2.6-1
		c35.5,0.1,60.8-18.7,82.4-44.6c14.5-17.4,20.1-37.8,22.1-59.7c0-261.7,0-523.4,0-785C706.8,22.2,708.1,10.4,703.6-0.1z M241.7,584
		C190.9,649.4,97,668.6,20.6,642.9c-81.1-26.6-140-108.2-138.3-193.8c-4-105.8,88.6-203.5,194.5-204.8
		c53.9-4.6,106.4,16.4,147.3,50.5c-16.8,18.4-33.8,36.6-52,53.7c-36-21.8-79.2-38.5-121.3-23.7C-17,344.1-58,424.1-32.9,490.4
		c20.7,69.3,105,107.3,171,78.2c34.2-12.2,56.7-43.7,66.6-77.6c-39.2-0.8-78.4-0.3-117.5-1.4c-0.1-23.3-0.2-46.5-0.1-69.8
		c65.3-0.1,130.8-0.3,196.2,0.3C287.4,477.1,278.9,538.2,241.7,584z M527.8,478.2c-19.5,0.1-39.1,0.2-58.5,0.3
		c-0.2,19.6-0.3,39.1-0.4,58.6c-19.5-0.1-39,0-58.4,0c-0.2-19.6-0.2-39.1-0.4-58.5c-19.5-0.2-39.1-0.3-58.6-0.4v-58.4
		c19.5-0.1,39-0.2,58.6-0.4c0.1-19.5,0.3-39.1,0.5-58.6h58.3c0.1,19.5,0.3,39.1,0.4,58.6c19.5,0.2,39.1,0.3,58.5,0.4V478.2
		L527.8,478.2z"/>
</g>
<g id="Layer_4" class="st0">
	<path class="st1" d="M709.2,76.7C709.2-6.2,641.4-74,558.5-74h-696c-82.9,0-150.7,67.8-150.7,150.7v696
		c0,82.9,67.8,150.7,150.7,150.7h348V546.6H88.6V380.4h121.9v-64.8c0-111.7,83.9-212.3,187-212.3H532v166.2H397.6
		c-14.7,0-31.9,17.9-31.9,44.6v66.2h166.2v166.2H365.6v376.8h192.9c82.9,0,150.7-67.8,150.7-150.7V76.7L709.2,76.7z"/>
</g>
<g id="Layer_5" class="st0">
	<path class="st1" d="M703.6-0.1c-11.9-28.1-31.8-48.9-58.4-63.8c-13.6-7.6-28.5-7.3-43-10.1c-261,0-522.1,0-783.1,0
		c-0.8,0.6-1.6,1-2.6,1c-35.6-0.1-60.9,18.7-82.5,44.5c-14.5,17.4-20.1,37.8-22.1,59.7c0,262.3,0,524.7,0,787
		c2.7,10.3,1.6,21.3,5.6,31.2c8.4,20.6,22.1,37.1,39,51.2c17.6,14.7,38.2,20.9,60.5,22.7c261.7,0,523.4,0,785,0c0.8-0.6,1.6-1,2.6-1
		c35.5,0.1,60.8-18.7,82.4-44.6c14.5-17.4,20.1-37.8,22.1-59.7c0-261.7,0-523.4,0-785C706.8,22.2,707.9,10.4,703.6-0.1z
		 M587.3,671.8c-19.3,2.7-113.3,0-118.1,0c-25.3-0.1-47.4-8.9-65.3-26.1c-19.9-19.1-37.9-40.1-56.9-60c-5.7-6-11.9-11.8-18.5-16.8
		c-15.6-11.9-30.9-9.2-38.2,9.1c-6.2,15.7-11.6,57-11.9,60.5c-1.3,18.4-13,30.2-33.7,31.3c-59.6,3.2-117.4-3.4-171.3-32.3
		c-45.6-24.4-82.1-59-113.6-99.3c-50.1-64-89.7-134.3-125.9-206.8c-1.8-3.7-38.5-81.6-39.5-85.3c-3.3-12.3-0.2-24.1,10.2-28.2
		c6.5-2.5,127.2,0,129.2,0.1c19.3,1,32.4,9.2,40.5,29.2c23.1,57,52.3,110.7,90.8,158.9c5.1,6.4,11.5,12.1,18.3,16.8
		c9.9,6.8,19.3,4.4,23.3-6.9c4.3-11.9,8.2-36,8.4-48.5c0.6-32.6-0.1-54-1.8-86.6c-1.1-20.9-8.6-39.2-39.3-44.7
		c-9.5-1.7-10.4-9.5-4.3-17.3c12.7-16.2,30.3-18.8,49.5-19.8c31-1.7,62.2-0.3,93.3,0c12.6,0.1,25.4,1.1,37.9,3.9
		c16.3,3.5,25,15,27.6,30.8c1.4,8.2,2.1,16.6,1.9,24.9c-0.8,35.6-2.5,71.2-2.9,106.8c-0.2,14,0.8,28.3,3.8,41.9
		c4.2,19,17.1,23.7,30.3,10c16.8-17.4,31.5-37,45.4-56.9c25.2-36.2,44-75.9,60.2-116.8c8.4-21.1,14.8-25.7,37.5-25.8
		c42.7-0.1,85.4-0.1,128.1,0c7.6,0,15.5,0.8,22.6,3c11.6,3.7,16.2,13.2,13.5,25.2c-6.3,28.1-21.5,52-37.8,75
		c-26.1,36.9-53.5,72.9-80.3,109.3c-3.4,4.7-6.4,9.6-9.2,14.6c-10,18.1-9.3,28.2,5.3,43.3c23.2,24,48.1,46.4,70.6,71
		c16.3,17.9,31.5,37.3,44.4,57.8C628.1,643.1,617.9,667.4,587.3,671.8z"/>
</g>
<g id="Layer_6" class="st0">
	<g class="st2">
		<ellipse class="st3" cx="206.9" cy="246.8" rx="89.6" ry="89.6"/>
		<path class="st3" d="M703.8-1.3c-12-28.2-31.8-49-58.6-64c-13.6-7.6-28.6-7.3-43.1-10.1c-261.8,0-523.5,0-785.3,0
			c-0.8,0.6-1.6,1-2.6,1c-35.6-0.1-60.9,18.7-82.6,44.7c-14.5,17.4-20.2,37.9-22.2,59.8c0,263.1,0,526.1,0,789.2
			c2.7,10.3,1.6,21.3,5.7,31.3c8.4,20.6,22.1,37.2,39.1,51.4c17.7,14.8,38.3,21,60.7,22.8c262.4,0,524.8,0,787.2,0
			c0.8-0.6,1.6-1,2.6-1c35.6,0.1,60.9-18.7,82.6-44.7c14.5-17.4,20.2-37.9,22.2-59.8c0-262.4,0-524.8,0-787.2
			C707.2,21,708.3,9.3,703.8-1.3z M206.9,64.7c100.6,0,182.1,81.6,182.1,182.1c0,100.6-81.6,182.1-182.1,182.1
			c-100.6,0-182.1-81.5-182.1-182.1C24.8,146.2,106.4,64.7,206.9,64.7z M368.9,534c-38.7,24.9-91.8,34.3-126.5,37.8l29,29
			l107.3,107.3c16.3,16.3,16.3,42.8,0,59.1l-4.9,4.9c-16.3,16.3-42.8,16.3-59.1,0c-27.3-27.3-66.6-66.6-107.3-107.3L100,772.1
			c-8.1,8.1-18.8,12.2-29.5,12.2h-0.2c-10.7,0-21.3-4.1-29.5-12.2l-4.9-4.9c-16.3-16.3-16.3-42.8,0-59.1
			c27.3-27.3,66.6-66.6,107.3-107.3l28.9-28.9C137.5,568.4,83.8,559,44.8,534c-45.7-29.3-66-46.8-48-82.8
			c10.3-20.7,38.8-37.8,76.6-8c51.2,40.3,133.3,40.3,133.3,40.3s82.2,0,133.3-40.3c37.9-29.8,66.3-12.6,76.6,8
			C434.7,487.2,414.6,504.6,368.9,534z"/>
	</g>
</g>
<g id="Layer_7" class="st0">
	<g class="st2">
		<path class="st3" d="M705.3,0.2c-12-28.1-31.8-49-58.5-63.9c-13.7-7.6-28.7-7.3-43.1-10.1c-261.4,0-522.9,0-784.3,0
			c-0.8,0.6-1.6,1-2.6,1c-35.6-0.1-60.9,18.7-82.5,44.6C-280.2-10.8-286,9.7-288,31.6c0,262.7,0,525.5,0,788.2
			c2.7,10.3,1.6,21.3,5.7,31.3c8.4,20.6,22.1,37.1,39.1,51.3c17.6,14.7,38.2,21,60.6,22.8c262.1,0,524.2,0,786.3,0
			c0.8-0.6,1.6-1,2.6-1c35.6,0.1,60.9-18.7,82.5-44.6c14.5-17.4,20.2-37.8,22.2-59.8c0-262.1,0-524.2,0-786.3
			C708.7,22.5,709.8,10.8,705.3,0.2z M576.8,589.5c-15.8,35.2-37.9,65.9-68.3,90.1c-27.4,21.9-58.1,26.7-90.7,14.3
			c-31.5-12-52.6-34.1-58.1-68.5c-1.6-9.9-1.1-20.2-1.6-31.7C257,689.4,117.7,670,38.5,583.8c-77.7-84.6-81.3-204.9-7.6-292.3
			c41.8-49.6,94.6-79.6,160.3-83c65.3-3.4,119.9,21.9,167.5,66.3c0.8-2.2,1.3-3.4,1.5-4.6c4.7-21.6,16.6-30.2,39.8-28.6
			c17.4,1.2,30.4,15.2,31.6,34.3c0.2,2.9,0.1,5.9,0.1,8.9c0,100.7,0.1,201.5,0.1,302.2c0,13.1,4.6,21.2,14.3,24.2
			c10.9,3.4,18.3-2.1,24.4-10.2c22.6-29.6,34.6-63.7,42.6-99.5c13.5-59.8,12.9-119.2-7.6-177.4c-23.4-66.6-69.7-113.6-130.7-146
			c-98.2-52.2-199.8-56.6-301.2-11.4C-12,204.9-61.8,275.3-82.8,364.7C-106.9,467-83.8,559-9.4,635c51.7,52.9,117,79.4,190,87.4
			c44.7,5,88.2-0.2,130.5-16.3c20.3-7.7,38.9-1.9,48.8,13.6c10.4,16.2,8.3,37.3-5.5,52.7c-7.2,8-16.2,13.2-26.2,17
			c-37.1,13.9-75.8,18-115.1,17.4c-76.5-1.2-149-18.5-214.7-58.5c-99.1-60.3-157-148.5-173.1-263.4c-12.5-89.5,2.7-174.1,51.1-251
			C-69.2,147.1,9.8,91.2,108.2,66.3c151.2-38.2,286.1-5.2,399.2,104.3c53.3,51.7,81.7,117.3,94.6,189.7
			C616.1,439.1,609.8,515.9,576.8,589.5z"/>
		<path class="st3" d="M58.9,431.1c-0.4-18.4,2.9-39.2,10.7-59c21.2-53.8,60.6-83.2,118.6-87.9c76.3-6.2,139.6,40.1,155.1,114
			c17.2,82.3-32,161.3-110.8,177.7C135.4,596.1,59.1,533.9,58.9,431.1z"/>
	</g>
</g>
<g id="Layer_8" class="st0">
	<path class="st1" d="M703.6-0.1c-11.9-28.1-31.8-48.9-58.4-63.8c-13.6-7.6-28.5-7.3-43-10.1c-261,0-522.1,0-783.1,0
		c-0.8,0.6-1.6,1-2.6,1c-35.6-0.1-60.9,18.7-82.5,44.5c-14.5,17.4-20.1,37.8-22.1,59.7c0,262.3,0,524.7,0,787
		c2.7,10.3,1.6,21.3,5.6,31.2c8.4,20.6,22.1,37.1,39,51.2c17.6,14.7,38.2,20.9,60.5,22.7c261.7,0,523.4,0,785,0c0.8-0.6,1.6-1,2.6-1
		c35.5,0.1,60.8-18.7,82.4-44.6c14.5-17.4,20.1-37.8,22.1-59.7c0-261.7,0-523.4,0-785C706.8,22.2,708.1,10.4,703.6-0.1z
		 M606.1,201.7c-18.3,22.7-39.4,43-62.8,60.1c0.3,7.2,0.5,14.4,0.5,21.7C543.8,505.3,377.9,761,74.5,761c-79,0-153.3-20-218.6-55.1
		c-8.8-4.7-5.2-18,4.7-18c0.1,0,0.3,0,0.4,0c68.2,0,131.6-20.9,184.3-56.7c7.1-4.8,4.9-15.9-3.5-17.4c-56-9.4-102.4-47.5-124.3-98.9
		c-2.8-6.5,2.6-13.9,9.6-13.2c5.2,0.5,10.4,0.8,15.7,0.8c0.9,0,1.8,0,2.7,0c10.1-0.2,12.8-13.9,3.7-18.3
		c-56.3-26.7-95.3-84.8-95.3-152.2c0-0.7,0-1.4,0-2.1c12.6,7.1,26.3,12.6,40.6,16.2c9.3,2.3,16.1-9,9.4-15.8
		c-30.1-30.4-48.7-72.6-48.7-119.1c0-25.5,5.6-49.6,15.6-71.2c2.9-6.2,11.4-7.4,15.8-2.2c78.6,92.4,191.5,153.7,318.6,163.6
		c6.1,0.5,11-5,10-11c-1.3-8.6-2-17.4-2-26.4c0-92.7,73.9-167.8,164.9-167.8c45.5,0,86.9,18.8,116.7,49.2c2.3,2.4,5.7,3.5,8.9,2.8
		c26.8-5.8,52.4-14.9,76.3-26.9c8.3-4.1,16.9,4.8,12.7,13c-8.1,16.4-19.1,31.2-32.1,43.9c-7,6.8-0.4,18.4,9.1,16
		c8.7-2.2,17.4-4.7,25.8-7.5C604.6,183.7,612.1,194.3,606.1,201.7z"/>
</g>
<g id="Layer_9" class="st0">
	<path class="st1" d="M410.4,20.2c48.5,2.2,74.8,10.3,92.3,17.1c23.2,9,39.7,19.8,57.1,37.2s28.2,34,37.2,57.1
		c6.8,17.5,14.9,43.9,17.1,92.3c6.1,133.1,6.1,268.5,0,401.6c-2.2,48.5-10.3,74.8-17.1,92.3c-9,23.2-19.8,39.8-37.2,57.2
		s-33.9,28.2-57.1,37.2c-17.5,6.8-43.8,14.9-92.3,17.1c-133.2,6-268.5,6-401.7,0c-48.4-2.2-74.8-10.3-92.3-17.1
		c-23.2-9-39.7-19.8-57.1-37.2s-28.1-33.9-37.2-57.2c-6.8-17.5-14.9-43.8-17.1-92.3c-6-133.2-6-268.5,0-401.6
		c2.2-48.5,10.3-74.8,17.1-92.3c9.1-23.2,19.8-39.7,37.2-57.1s34-28.2,57.1-37.2c17.5-6.8,43.8-14.9,92.3-17.1
		C141.9,14.1,277.1,14.2,410.4,20.2L410.4,20.2z M4.6-69.3c-52.9,2.4-89,10.8-120.6,23.1c-32.7,12.7-60.4,29.7-88,57.4
		c-27.6,27.6-44.6,55.3-57.3,88c-12.4,31.6-20.8,67.7-23.2,120.6c-6.2,135.9-6.2,274,0,409.8c2.4,52.9,10.8,89,23.1,120.6
		c12.7,32.7,29.7,60.4,57.3,88s55.4,44.6,88,57.4c31.6,12.3,67.8,20.7,120.6,23.1c135.9,6.1,274,6.1,409.9,0
		c52.9-2.4,89-10.8,120.6-23.1c32.7-12.7,60.4-29.7,88-57.4c27.6-27.6,44.6-55.4,57.3-88c12.3-31.6,20.7-67.7,23.1-120.6
		c6.2-135.9,6.2-274,0-409.8c-2.4-52.9-10.8-89-23.1-120.6c-12.7-32.7-29.7-60.4-57.3-88s-55.4-44.7-88-57.4
		c-31.6-12.3-67.7-20.7-120.6-23.1C278.6-75.6,140.4-75.6,4.6-69.3L4.6-69.3z M209.5,169.5c-140.9,0-255.2,114.3-255.2,255.2
		S68.6,679.9,209.5,679.9c141,0,255.2-114.3,255.2-255.2S350.6,169.5,209.5,169.5L209.5,169.5z M209.5,590.4
		c-91.5,0-165.7-74.2-165.7-165.7S118.1,259,209.6,259s165.7,74.2,165.7,165.7S301.1,590.4,209.5,590.4L209.5,590.4z M534.6,159.4
		c0,33-26.7,59.7-59.6,59.7s-59.6-26.7-59.6-59.6c0-33,26.7-59.7,59.6-59.7C507.7,99.8,534.6,126.5,534.6,159.4L534.6,159.4z"/>
</g>
<g id="Layer_12_3_">
	<g>
		
			<linearGradient id="SVGID_1_" gradientUnits="userSpaceOnUse" x1="140.8246" y1="753.5377" x2="140.8246" y2="698.9124" gradientTransform="matrix(1 0 0 1 0 -686)">
			<stop  offset="0" style="stop-color:#007AFF"/>
			<stop  offset="1" style="stop-color:#00D4FF"/>
		</linearGradient>
		<path class="st6" d="M129.2,37.9c-0.5,1.3-1.5,1.5-2.6,0.8c-0.8-0.5-1.5-1.2-2.1-1.9c-4.4-5.5-7.8-11.7-10.4-18.4
			c-0.9-2.3-2.5-3.3-4.6-3.4c-0.3,0-14.2-0.3-14.9,0c-1.2,0.5-1.5,1.8-1.2,3.3c0.1,0.5,4.3,9.4,4.5,9.8c4.2,8.3,8.7,16.4,14.5,23.8
			c3.6,4.6,7.8,8.6,13.2,11.4c6.2,3.3,12.8,4.1,19.7,3.7c2.4-0.1,3.7-1.5,3.9-3.6c0-0.4,0.6-5.2,1.4-6.9c0.8-2.1,2.6-2.4,4.4-1
			c0.7,0.5,1.5,1.3,2.1,1.9c2.2,2.3,4.3,4.7,6.5,6.9c2.1,2,4.6,3,7.4,3c0.5,0,11.4,0.3,13.6,0c3.5-0.5,4.6-3.3,2.8-6.3
			c-1.5-2.4-3.2-4.5-5.1-6.6c-2.5-2.8-5.4-5.4-8.1-8.2c-1.6-1.7-1.7-2.9-0.6-5c0.4-0.5,0.6-1.2,1.1-1.6c3.1-4.2,6.2-8.4,9.2-12.5
			c1.9-2.6,3.6-5.4,4.4-8.6c0.3-1.4-0.2-2.5-1.5-2.9c-0.8-0.3-1.7-0.4-2.6-0.4c-4.9,0-9.8,0-14.8,0c-2.6,0-3.4,0.5-4.3,3
			c-1.8,4.7-4,9.3-6.9,13.5c-1.6,2.3-3.3,4.5-5.2,6.5c-1.5,1.5-3,1-3.5-1.2c-0.4-1.5-0.5-3.2-0.5-4.8c0.1-4.1,0.3-8.2,0.4-12.3
			c0-0.9-0.1-1.9-0.2-2.8c-0.3-1.8-1.3-3.1-3.2-3.5c-1.5-0.3-2.9-0.5-4.4-0.5c-3.5,0-7.2-0.2-10.7,0c-2.2,0.1-4.2,0.5-5.7,2.3
			c-0.7,0.9-0.6,1.8,0.5,2c3.5,0.6,4.4,2.7,4.5,5.1c0.2,3.7,0.3,6.2,0.2,9.9C130.1,33.7,129.8,36.5,129.2,37.9z"/>
	</g>
</g>
<g>
	
		<linearGradient id="SVGID_2_" gradientUnits="userSpaceOnUse" x1="14.0809" y1="752.0192" x2="65.6191" y2="700.4808" gradientTransform="matrix(1 0 0 1 0 -686)">
		<stop  offset="0" style="stop-color:#FF00CA"/>
		<stop  offset="1" style="stop-color:#FCC83C"/>
	</linearGradient>
	<path class="st7" d="M52,40.1c0,6.7-5.4,12.1-12.1,12.1s-12.1-5.4-12.1-12.1S33.2,28,39.8,28C46.5,28,52,33.5,52,40.1z M69.6,55
		c-0.2,3.5-0.8,5.4-1.2,6.8c-0.7,1.7-1.4,3-2.8,4.2c-1.2,1.2-2.5,2.1-4.2,2.8c-1.2,0.5-3.3,1.1-6.8,1.2c-9.8,0.5-19.7,0.5-29.5,0
		c-3.5-0.2-5.4-0.8-6.8-1.2c-1.7-0.7-3-1.4-4.2-2.8c-1.2-1.2-2.1-2.5-2.8-4.2c-0.5-1.2-1.1-3.3-1.2-6.8c-0.5-9.8-0.5-19.7,0-29.5
		c0.2-3.5,0.8-5.4,1.2-6.8c0.7-1.7,1.4-3,2.8-4.2c1.2-1.2,2.5-2.1,4.2-2.8c1.2-0.5,3.3-1.1,6.8-1.2c9.8-0.5,19.8-0.5,29.5,0
		c3.5,0.2,5.4,0.8,6.8,1.2c1.7,0.7,3,1.4,4.2,2.8c1.2,1.2,2.1,2.5,2.8,4.2c0.5,1.2,1.1,3.3,1.2,6.8C70.1,35.2,70.1,45.1,69.6,55z
		 M58.6,40c0-10.3-8.4-18.7-18.7-18.7S21.2,29.7,21.2,40s8.4,18.7,18.7,18.7C50.2,58.8,58.6,50.4,58.6,40z M63.7,20.6
		c0-2.5-2-4.4-4.4-4.4s-4.4,2-4.4,4.4s2,4.4,4.4,4.4S63.7,23,63.7,20.6z"/>
</g>
<g>
	
		<linearGradient id="SVGID_3_" gradientUnits="userSpaceOnUse" x1="-2301.0437" y1="-619.9985" x2="-2249.5054" y2="-671.5367" gradientTransform="matrix(-1 0 0 -1 -1995.5247 -605.6176)">
		<stop  offset="8.851601e-04" style="stop-color:#0093FF"/>
		<stop  offset="1" style="stop-color:#8700FF"/>
	</linearGradient>
	<path class="st8" d="M250,25.4c0.2-3.5,0.8-5.4,1.2-6.8c0.7-1.7,1.4-3,2.8-4.2c1.2-1.2,2.5-2.1,4.2-2.8c1.2-0.5,3.3-1.1,6.8-1.2
		c9.8-0.5,19.7-0.5,29.5,0c3.5,0.2,5.4,0.8,6.8,1.2c1.7,0.7,3,1.4,4.2,2.8c1.2,1.2,2.1,2.5,2.8,4.2c0.5,1.2,1.1,3.3,1.2,6.8
		c0.5,9.8,0.5,19.7,0,29.5c-0.2,3.5-0.8,5.4-1.2,6.8c-0.7,1.7-1.4,3-2.8,4.2c-1.2,1.2-2.5,2.1-4.2,2.8c-1.2,0.5-3.3,1.1-6.8,1.2
		c-9.8,0.5-19.8,0.5-29.5,0c-3.5-0.2-5.4-0.8-6.8-1.2c-1.7-0.7-3-1.4-4.2-2.8c-1.2-1.2-2.1-2.5-2.8-4.2c-0.5-1.2-1.1-3.3-1.2-6.8
		C249.5,45.2,249.5,35.3,250,25.4z"/>
	<g id="Layer_12_1_">
		<path class="st9" d="M279.9,33.9v3.9h-7.4v10.1h7.4v22.8h9.4V47.9h10.1V37.8h-10v-4c0-1.6,1-2.7,2-2.7h8.1V21h-8.2
			C285.1,21,279.9,27.1,279.9,33.9z"/>
	</g>
</g>
</svg>
