<?xml version="1.0" encoding="utf-8"?>
<!-- Generator: Adobe Illustrator 23.0.3, SVG Export Plug-In . SVG Version: 6.00 Build 0)  -->
<svg version="1.1" id="Layer_1" xmlns="http://www.w3.org/2000/svg" xmlns:xlink="http://www.w3.org/1999/xlink" x="0px" y="0px"
	 viewBox="0 0 27 27" style="enable-background:new 0 0 27 27;" xml:space="preserve">
<style type="text/css">
	.st0{fill-rule:evenodd;clip-rule:evenodd;}
</style>
<g transform="translate(32 732)">
	<path class="st0" d="M-18.5-731.5c-3.5,0-4,0-5.4,0.1c-1.3,0-2.3,0.3-3.1,0.6c-0.9,0.3-1.6,0.8-2.3,1.5c-0.7,0.7-1.2,1.4-1.5,2.3
		c-0.3,0.8-0.6,1.8-0.6,3.1c-0.1,1.4-0.1,1.9-0.1,5.4s0,4,0.1,5.4c0.1,1.4,0.3,2.3,0.6,3.2c0.3,0.9,0.8,1.6,1.5,2.3
		c0.7,0.7,1.4,1.2,2.3,1.5c0.8,0.3,1.8,0.5,3.2,0.6h5.3c0,0,4,0,5.4-0.1c1.4-0.1,2.3-0.3,3.2-0.6s1.6-0.8,2.3-1.5s1.2-1.4,1.5-2.3
		c0.3-0.8,0.5-1.8,0.6-3.2c0-1.3,0-1.8,0-5.3s0-4-0.1-5.4c-0.1-1.4-0.3-2.3-0.6-3.2c-0.3-0.9-0.8-1.6-1.5-2.3
		c-0.7-0.7-1.4-1.1-2.3-1.4c-0.8-0.3-1.8-0.5-3.2-0.6C-14.5-731.5-15-731.5-18.5-731.5 M-18.5-729.2c3.5,0,3.9,0,5.3,0.1
		c1.3,0.1,2,0.3,2.4,0.4c0.6,0.2,1,0.5,1.5,1s0.7,0.9,1,1.5c0.2,0.5,0.4,1.1,0.4,2.4c0.1,1.4,0.1,1.8,0.1,5.3s0,3.9-0.1,5.3
		c-0.1,1.3-0.3,2-0.4,2.4c-0.2,0.6-0.5,1-1,1.5s-0.9,0.7-1.5,1c-0.5,0.2-1.1,0.4-2.4,0.4c-1.4,0.1-1.8,0.1-5.3,0.1s-3.9,0-5.3-0.1
		c-1.3-0.1-2-0.3-2.4-0.4c-0.6-0.2-1-0.5-1.5-1s-0.7-0.9-1-1.5c-0.2-0.5-0.4-1.1-0.4-2.4c-0.1-1.4-0.1-1.8-0.1-5.3s0-3.9,0.1-5.3
		c0.1-1.3,0.3-2,0.4-2.4c0.2-0.6,0.5-1,1-1.5s0.9-0.7,1.5-1c0.5-0.2,1.1-0.4,2.4-0.4C-22.4-729.1-22-729.2-18.5-729.2"/>
	<path class="st0" d="M-18.5-725.5c-3.9,0-7,3.1-7,7s3.1,7,7,7s7-3.1,7-7S-14.6-725.5-18.5-725.5 M-18.5-714c-2.5,0-4.5-2-4.5-4.5
		s2-4.5,4.5-4.5s4.5,2,4.5,4.5S-16-714-18.5-714"/>
	<path class="st0" d="M-9.8-725.4c0,0.9-0.7,1.6-1.6,1.6s-1.6-0.7-1.6-1.6c0-0.9,0.7-1.6,1.6-1.6S-9.8-726.3-9.8-725.4"/>
</g>
</svg>
