<?xml version="1.0" encoding="utf-8"?>
<!-- Generator: Adobe Illustrator 23.0.3, SVG Export Plug-In . SVG Version: 6.00 Build 0)  -->
<svg version="1.1" id="Layer_1" xmlns="http://www.w3.org/2000/svg" xmlns:xlink="http://www.w3.org/1999/xlink" x="0px" y="0px"
	 viewBox="0 0 30 21.2" style="enable-background:new 0 0 30 21.2;" xml:space="preserve">
<style type="text/css">
	.st0{fill-rule:evenodd;clip-rule:evenodd;fill:#FF6666;}
	.st1{fill-rule:evenodd;clip-rule:evenodd;fill:#FFD1D1;}
	.st2{fill-rule:evenodd;clip-rule:evenodd;fill:#FF7171;}
	.st3{fill-rule:evenodd;clip-rule:evenodd;fill:#FF9B9B;}
	.st4{fill-rule:evenodd;clip-rule:evenodd;fill:#FF7C7C;}
	.st5{fill-rule:evenodd;clip-rule:evenodd;fill:#FFBCBC;}
	.st6{fill-rule:evenodd;clip-rule:evenodd;}
	
		.st7{fill-rule:evenodd;clip-rule:evenodd;fill:none;stroke:#000000;stroke-width:2;stroke-linecap:round;stroke-linejoin:round;stroke-miterlimit:10;}
</style>
<path class="st6" d="M29.7,4.6c0,0-0.3-2.1-1.2-3c-1.1-1.2-2.4-1.2-3-1.3C21.3,0,15,0,15,0S8.7,0,4.5,0.3c-0.6,0.1-1.9,0.1-3,1.3
	c-0.9,0.9-1.2,3-1.2,3S0,7,0,9.5v2.2c0,2.4,0.3,4.9,0.3,4.9s0.3,2.1,1.2,3c1.1,1.2,2.6,1.2,3.3,1.3C7.2,21.1,15,21.2,15,21.2
	s6.3,0,10.5-0.3c0.6-0.1,1.9-0.1,3-1.3c0.9-0.9,1.2-3,1.2-3s0.3-2.4,0.3-4.9V9.5C30,7,29.7,4.6,29.7,4.6z M11.9,14.4V6l8.1,4.2
	L11.9,14.4z"/>
</svg>
